<?xml version="1.0" standalone="no"?>
<!DOCTYPE svg PUBLIC "-//W3C//DTD SVG 20010904//EN"
 "http://www.w3.org/TR/2001/REC-SVG-20010904/DTD/svg10.dtd">
<svg version="1.0" xmlns="http://www.w3.org/2000/svg"
 width="384.000000pt" height="311.000000pt" viewBox="0 0 384.000000 311.000000"
 preserveAspectRatio="xMidYMid meet">

<g transform="translate(0.000000,311.000000) scale(0.100000,-0.100000)"
fill="#000000" stroke="none">
<path d="M1590 3069 c-211 -22 -332 -72 -465 -189 -98 -86 -132 -103 -217
-108 -76 -5 -104 3 -241 65 -83 38 -108 45 -158 44 -76 -1 -93 -11 -115 -66
-37 -98 6 -224 114 -334 74 -75 77 -80 86 -150 11 -83 38 -128 87 -142 23 -7
47 -22 55 -34 40 -61 37 -212 -8 -380 -52 -196 -5 -421 128 -607 l33 -47 -312
1 c-420 0 -575 -21 -553 -78 5 -13 14 -15 49 -10 23 3 78 11 122 18 90 13 693
14 737 1 61 -18 24 -28 -124 -35 -261 -12 -462 -42 -488 -73 -18 -22 0 -47 29
-42 14 3 62 12 106 21 193 36 581 50 605 21 7 -9 11 -17 9 -19 -2 -1 -80 -8
-174 -15 -286 -21 -589 -68 -663 -103 -16 -8 -27 -21 -27 -33 0 -26 29 -25
170 8 120 29 379 60 630 77 137 9 161 8 174 -5 8 -8 13 -16 10 -19 -2 -2 -65
-11 -139 -21 -236 -29 -390 -71 -390 -106 0 -30 22 -32 96 -10 85 26 277 59
390 68 l84 6 0 -44 c0 -124 50 -266 119 -334 38 -39 109 -75 146 -75 15 0 35
-14 55 -41 l33 -40 -26 -27 c-45 -49 -107 -145 -107 -168 0 -23 20 -37 36 -26
5 4 26 32 46 62 21 30 53 70 72 89 36 35 60 37 100 8 17 -13 17 -16 2 -60 -20
-60 -21 -106 -1 -113 21 -8 45 14 45 40 0 13 7 42 15 67 l15 44 136 -1 c74 -1
139 -5 144 -10 5 -5 16 -36 24 -68 18 -67 28 -81 50 -73 21 8 21 61 1 117 -20
58 -20 58 25 71 40 12 41 12 79 -25 20 -20 53 -61 72 -91 39 -62 52 -71 74
-49 13 14 13 19 -4 52 -11 20 -42 65 -71 100 l-51 63 31 40 c18 21 40 39 49
39 75 0 174 77 219 171 25 51 52 178 52 241 l0 41 79 -6 c98 -8 297 -42 371
-63 82 -24 114 -24 118 2 2 15 -5 24 -25 33 -74 30 -249 63 -455 87 -32 3 -58
10 -58 15 0 25 45 27 236 14 330 -23 578 -59 694 -100 47 -16 70 -11 70 17 0
26 -47 44 -189 73 -118 24 -404 59 -589 71 -102 7 -103 7 -85 27 17 19 26 19
213 13 214 -6 327 -17 437 -42 57 -13 76 -14 87 -5 57 47 -90 82 -437 103
-187 11 -206 14 -192 28 14 13 65 15 388 15 324 0 382 -2 449 -18 43 -10 82
-16 88 -12 14 9 13 41 -2 53 -43 33 -355 57 -640 47 -115 -4 -208 -3 -208 1 0
5 18 36 40 69 45 68 92 175 115 261 21 82 19 222 -5 319 -59 239 -45 391 38
410 52 11 85 59 97 140 9 66 23 90 92 156 100 97 144 204 123 304 -16 76 -44
99 -123 99 -45 -1 -74 -7 -106 -23 -242 -125 -348 -123 -497 9 -130 114 -211
154 -379 187 -95 18 -630 27 -765 12z m669 -59 c190 -20 292 -62 416 -171 125
-111 228 -147 343 -121 23 5 42 7 42 3 0 -4 -37 -25 -81 -46 -79 -39 -85 -40
-183 -40 -87 1 -113 5 -191 33 -90 31 -115 30 -115 -4 0 -18 66 -51 143 -70
77 -20 116 -40 189 -98 74 -59 125 -135 139 -208 12 -59 32 -79 56 -55 10 10
11 25 3 66 -14 75 -54 142 -122 207 -32 30 -58 57 -58 58 0 2 19 6 43 10 59 9
202 82 336 170 134 89 163 95 181 40 25 -74 -18 -173 -119 -279 -71 -74 -82
-94 -101 -188 -11 -54 -15 -60 -48 -74 -72 -29 -97 -68 -111 -164 -10 -75 2
-209 28 -304 29 -107 34 -154 22 -240 -18 -130 -110 -323 -188 -397 -24 -22
-39 -26 -113 -30 -76 -5 -86 -3 -102 16 -13 17 -20 19 -35 10 -28 -17 -52 -65
-66 -135 -11 -54 -16 -64 -37 -69 -34 -8 -38 -37 -6 -51 28 -13 36 -39 12 -39
-25 0 -29 -34 -5 -53 20 -16 21 -23 16 -90 -13 -145 -65 -251 -147 -294 -39
-21 -57 -23 -172 -23 -133 0 -173 9 -213 46 -43 40 -74 116 -57 140 4 6 28 25
54 43 54 36 68 57 68 100 0 27 9 38 65 78 72 52 93 89 72 131 -18 38 -43 50
-63 30 -15 -14 -15 -18 1 -41 l16 -26 -69 -50 c-75 -55 -82 -65 -82 -115 0
-29 -7 -37 -51 -65 l-51 -31 -47 33 c-38 28 -47 40 -51 73 -7 52 -11 56 -80
105 -59 41 -71 64 -48 87 10 9 8 16 -5 29 -21 21 -45 10 -65 -30 -19 -38 0
-70 73 -127 40 -31 61 -55 63 -71 7 -58 15 -70 73 -110 60 -40 61 -42 54 -78
-9 -49 -52 -101 -105 -128 -38 -20 -60 -23 -155 -23 -135 0 -179 11 -228 58
-49 47 -75 97 -93 181 -20 96 -18 153 6 174 21 18 17 47 -6 47 -24 0 -16 38 9
42 35 5 35 43 -1 56 -26 9 -30 16 -36 60 -4 28 -13 67 -21 86 -25 58 -76 80
-89 38 -5 -15 -19 -17 -93 -14 l-88 3 -41 45 c-91 100 -169 280 -180 416 -5
59 -1 95 21 188 31 131 43 302 26 366 -15 56 -46 92 -97 114 -40 18 -43 22
-54 77 -6 32 -14 69 -18 83 -3 14 -38 59 -78 101 -108 113 -155 226 -121 289
23 43 67 33 182 -45 116 -78 277 -160 334 -170 l39 -6 -62 -63 c-74 -74 -117
-154 -119 -223 -2 -45 0 -48 22 -48 22 0 26 7 38 58 29 129 164 256 315 298
75 21 142 52 154 70 3 6 -1 18 -9 27 -15 14 -20 14 -54 -1 -90 -39 -149 -52
-243 -52 -91 0 -99 2 -179 40 l-83 40 98 0 c122 0 176 22 277 113 134 122 224
159 452 186 70 8 568 5 654 -4z m-1060 -1963 c19 -55 18 -111 0 -115 -16 -3
-140 89 -147 109 -2 5 22 9 52 9 41 0 58 4 62 15 10 24 22 17 33 -18z m1474
12 c5 -20 10 -21 61 -15 34 5 56 4 56 -2 0 -10 -89 -80 -128 -101 -44 -23 -52
2 -27 87 17 55 29 65 38 31z m-719 -655 c43 -54 115 -84 204 -84 40 0 72 -4
72 -10 0 -16 -75 -60 -112 -66 -32 -6 -36 -3 -47 25 -19 45 -38 58 -58 38 -14
-13 -14 -20 -3 -47 7 -17 9 -34 5 -38 -9 -9 -181 -9 -190 0 -4 3 -1 23 6 43
11 31 11 37 -1 45 -22 14 -33 8 -55 -34 -18 -33 -23 -37 -52 -32 -37 5 -115
55 -107 67 3 5 33 9 66 9 90 0 136 17 188 71 25 26 47 47 50 48 3 1 18 -15 34
-35z"/>
<path d="M2432 2347 c-21 -26 -74 -167 -68 -182 3 -10 15 -15 28 -13 17 2 29
21 55 88 18 47 33 88 33 92 0 16 -38 28 -48 15z"/>
<path d="M1367 2336 c-7 -17 48 -165 69 -186 12 -12 16 -12 30 2 16 15 15 21
-6 80 -13 35 -29 75 -37 91 -14 29 -47 37 -56 13z"/>
<path d="M1573 2334 c-3 -8 -6 -50 -7 -92 -1 -72 0 -77 21 -80 25 -4 28 5 38
102 6 60 -4 86 -32 86 -7 0 -16 -7 -20 -16z"/>
<path d="M2222 2338 c-13 -13 -15 -71 -4 -133 6 -34 11 -40 32 -40 25 0 25 1
21 80 -4 95 -19 123 -49 93z"/>
<path d="M1157 2273 c-16 -15 -3 -40 64 -125 72 -90 101 -106 107 -61 2 16
-18 49 -65 107 -62 78 -89 97 -106 79z"/>
<path d="M2580 2199 c-72 -89 -82 -108 -68 -126 19 -24 35 -13 107 77 73 90
85 123 46 127 -14 2 -39 -21 -85 -78z"/>
<path d="M1316 1974 c-15 -40 73 -85 221 -115 125 -25 149 -40 170 -103 11
-36 25 -42 46 -21 12 12 14 22 6 48 -22 76 -72 110 -199 132 -46 8 -112 28
-148 45 -74 34 -87 36 -96 14z"/>
<path d="M2436 1958 c-32 -17 -93 -36 -135 -43 -93 -17 -129 -30 -159 -58 -49
-45 -69 -119 -35 -131 20 -8 35 6 49 47 13 40 69 73 139 82 69 8 130 27 194
60 42 21 52 30 49 48 -4 31 -33 30 -102 -5z"/>
<path d="M1113 1929 c-17 -17 -5 -37 38 -61 l38 -21 -2 -76 c-1 -66 3 -83 26
-126 30 -53 91 -105 146 -124 77 -25 184 -4 238 48 12 12 25 21 28 21 4 0 6
-28 5 -62 -2 -88 -2 -88 20 -88 30 0 42 41 41 138 -1 92 -18 137 -68 183 -44
42 -81 56 -204 79 -83 15 -136 31 -196 60 -89 44 -94 45 -110 29z m195 -131
c7 -7 12 -28 12 -49 0 -47 30 -85 79 -100 50 -15 104 7 132 55 17 30 24 34 40
26 10 -6 23 -19 29 -29 24 -47 -82 -131 -165 -131 -56 0 -124 37 -158 86 -28
41 -45 109 -34 139 7 18 48 20 65 3z m176 -38 c15 -15 -23 -50 -55 -50 -29 0
-49 23 -49 56 0 14 7 16 47 10 26 -3 52 -11 57 -16z"/>
<path d="M2645 1914 c-55 -33 -143 -61 -248 -79 -103 -17 -145 -35 -188 -79
-47 -48 -59 -87 -59 -195 0 -101 7 -121 43 -121 16 0 18 8 17 63 -2 93 -4 91
33 63 82 -63 186 -74 275 -30 99 49 160 172 133 268 -9 36 -9 38 21 54 45 25
68 49 62 67 -9 21 -42 17 -89 -11z m-52 -133 c13 -64 -38 -158 -105 -192 -85
-43 -202 -9 -243 72 -15 28 -15 30 11 56 26 26 28 26 38 8 35 -60 84 -84 145
-69 43 11 81 62 81 110 0 23 5 34 18 37 40 11 50 7 55 -22z m-135 -22 c4 -23
-24 -49 -53 -49 -26 0 -58 26 -52 43 9 28 100 32 105 6z"/>
<path d="M1070 1497 c0 -17 13 -32 49 -55 56 -36 96 -86 115 -140 9 -25 20
-38 34 -40 74 -11 8 133 -99 218 -59 46 -99 53 -99 17z"/>
<path d="M2670 1477 c-60 -48 -105 -106 -120 -156 -22 -76 29 -86 61 -11 19
45 55 84 144 158 22 18 25 25 15 37 -20 24 -41 18 -100 -28z"/>
<path d="M1761 1431 c-20 -13 -5 -93 31 -164 34 -69 103 -147 128 -147 10 0
37 21 60 47 75 85 135 251 96 266 -22 9 -42 -16 -51 -59 -8 -45 -44 -117 -78
-159 -25 -30 -25 -30 -46 -11 -26 23 -91 151 -91 178 0 22 -17 58 -28 58 -4 0
-13 -4 -21 -9z"/>
<path d="M1450 1270 c-89 -131 -101 -199 -50 -287 31 -54 49 -64 70 -39 9 12
6 24 -14 59 -14 24 -26 57 -26 73 0 35 28 98 70 159 33 48 37 88 8 93 -11 2
-30 -17 -58 -58z"/>
<path d="M2313 1313 c-7 -17 -1 -28 57 -120 46 -73 50 -128 15 -188 -28 -50
-27 -75 4 -75 34 0 81 88 81 154 0 46 -39 136 -89 204 -33 44 -57 53 -68 25z"/>
<path d="M1531 941 c-36 -67 25 -201 92 -201 33 0 31 30 -4 66 -28 29 -35 44
-39 92 -5 61 -29 82 -49 43z"/>
<path d="M2267 953 c-4 -3 -7 -25 -7 -47 0 -43 -29 -102 -55 -112 -20 -8 -19
-43 1 -51 42 -16 114 72 114 141 0 58 -28 94 -53 69z"/>
<path d="M1754 905 c-10 -24 2 -42 46 -71 49 -33 141 -44 193 -24 56 23 98 60
95 83 -4 31 -34 32 -68 3 -56 -46 -144 -47 -199 -1 -33 28 -59 32 -67 10z"/>
<path d="M1394 746 c-3 -8 -4 -25 -2 -38 2 -18 9 -23 32 -23 36 0 56 27 40 53
-14 22 -62 28 -70 8z"/>
<path d="M2382 748 c-27 -27 -6 -68 35 -68 27 0 38 20 29 55 -7 27 -42 35 -64
13z"/>
<path d="M1566 655 c-20 -21 -20 -39 0 -59 20 -21 30 -20 55 5 18 18 19 23 6
42 -18 28 -40 32 -61 12z"/>
<path d="M2213 644 c-16 -26 -16 -27 6 -45 13 -11 27 -19 31 -19 13 0 40 30
40 45 0 18 -28 45 -45 45 -8 0 -22 -12 -32 -26z"/>
<path d="M2376 607 c-38 -28 2 -96 42 -71 23 15 22 54 -4 70 -17 12 -23 12
-38 1z"/>
<path d="M1411 596 c-16 -19 -11 -46 12 -60 25 -16 52 4 52 40 0 24 -5 30 -26
32 -14 2 -31 -4 -38 -12z"/>
<path d="M1678 565 c-8 -19 -8 -28 2 -40 32 -38 94 1 70 45 -16 29 -58 26 -72
-5z"/>
<path d="M2090 570 c-15 -28 4 -60 35 -60 14 0 29 8 35 20 15 28 -4 60 -35 60
-14 0 -29 -8 -35 -20z"/>
<path d="M1526 501 c-21 -23 -14 -57 13 -66 45 -14 76 32 45 66 -9 10 -22 19
-29 19 -7 0 -20 -9 -29 -19z"/>
<path d="M2256 504 c-20 -20 -20 -38 0 -59 21 -20 43 -16 61 12 13 19 12 24
-6 42 -25 25 -35 26 -55 5z"/>
</g>
</svg>
